<svg width="32" height="32" viewBox="0 0 32 32" fill="none" xmlns="http://www.w3.org/2000/svg">
<path fill-rule="evenodd" clip-rule="evenodd" d="M32 5.33333C32 2.38781 29.6122 0 26.6667 0H5.33333C2.38781 0 0 2.38781 0 5.33333V26.6667C0 29.6122 2.38781 32 5.33333 32H26.6667C29.6122 32 32 29.6122 32 26.6667V5.33333ZM5.33333 1.33333H26.6667L26.9017 1.34012C29.0014 1.46179 30.6667 3.20309 30.6667 5.33333V26.6667L30.6599 26.9017C30.5382 29.0014 28.7969 30.6667 26.6667 30.6667H5.33333L5.0983 30.6599C2.99856 30.5382 1.33333 28.7969 1.33333 26.6667V5.33333L1.34012 5.0983C1.46179 2.99856 3.20309 1.33333 5.33333 1.33333Z" fill="#EEEFF7"/>
<path fill-rule="evenodd" clip-rule="evenodd" d="M19.688 24L20.8 22.8752L14.1912 15.9896L14.896 15.2552L14.892 15.2592L20.764 9.1416L19.6688 8C18.0456 9.6904 13.5144 14.4112 12 15.9896C13.1248 17.1624 12.028 16.0192 19.688 24Z" fill="#8397AB"/>
</svg>
